# xmcd
#
# Track frame offsets:
#	183
#	13705
#	23938
#	37153
#	56085
#	68038
#	84158
#	97510
#	122423
#	137115
#	149593
#	163163
#	177593
#	193213
#	205530
#	221200
#	234808
#	248275
#	262168
#	277120
#	292343
#
# Disc length: 4077 seconds
#
# Revision: 0
# Processed by: cddbd v1.5PL3 Copyright (c) Steve Scherf et al.
# Submitted via: audiograbber 1.80
#
DISCID=3d0feb15
DTITLE=Claude François - 124 succès, 124 souvenirs
DYEAR=1900
DGENRE=blues
TTITLE0=La plus belle chose au monde
TTITLE1=L'homme au traineau
TTITLE2=Ma fille
TTITLE3=Comme d'habitude
TTITLE4=Le martien
TTITLE5=Avec la tête, avec le coeur
TTITLE6=Reste
TTITLE7=Eloïse
TTITLE8=Dans les orphelinats
TTITLE9=Le magicien
TTITLE10=Les majorettes
TTITLE11=Un monde de musique
TTITLE12=Rêveries
TTITLE13=Les moulins de mon coeur
TTITLE14=Une petite fille aux yeux rouges
TTITLE15=Un jour ou l'autre
TTITLE16=Cherche
TTITLE17=Mon coeur est une maison vide
TTITLE18=Jeu dangereux
TTITLE19=Roule
TTITLE20=Menteur ou cruel
EXTD=Selection du Reader's Digest, Disque 3
EXTT0=
EXTT1=
EXTT2=
EXTT3=
EXTT4=
EXTT5=
EXTT6=
EXTT7=
EXTT8=
EXTT9=
EXTT10=
EXTT11=
EXTT12=
EXTT13=
EXTT14=
EXTT15=
EXTT16=
EXTT17=
EXTT18=
EXTT19=
EXTT20=
PLAYORDER=
